<svg width="20" height="20" viewBox="0 0 20 20" fill="none" xmlns="http://www.w3.org/2000/svg">
<path d="M15.0698 20C14.0186 20 12.9116 19.7488 11.7674 19.2651C10.6512 18.7907 9.52558 18.1395 8.42791 17.3488C7.33954 16.5488 6.28837 15.6558 5.29302 14.6791C4.30698 13.6837 3.41395 12.6326 2.62326 11.5535C1.82326 10.4372 1.1814 9.32093 0.725581 8.24186C0.24186 7.08837 0 5.97209 0 4.92093C0 4.19535 0.130233 3.50698 0.381395 2.86512C0.64186 2.20465 1.06047 1.5907 1.62791 1.06047C2.34419 0.353488 3.16279 0 4.03721 0C4.4 0 4.77209 0.0837209 5.08837 0.232558C5.45116 0.4 5.75814 0.651163 5.98139 0.986046L8.13953 4.02791C8.33488 4.29767 8.48372 4.55814 8.58605 4.8186C8.70698 5.09767 8.77209 5.37674 8.77209 5.64651C8.77209 6 8.66977 6.34419 8.47442 6.66977C8.33488 6.92093 8.12093 7.1907 7.85116 7.46047L7.2186 8.12093C7.22791 8.14884 7.23721 8.16744 7.24651 8.18605C7.35814 8.3814 7.58139 8.71628 8.0093 9.21861C8.46512 9.73954 8.89302 10.214 9.32093 10.6512C9.86977 11.1907 10.3256 11.6186 10.7535 11.9721C11.2837 12.4186 11.6279 12.6419 11.8326 12.7442L11.814 12.7907L12.493 12.1209C12.7814 11.8326 13.0605 11.6186 13.3302 11.4791C13.8419 11.1628 14.493 11.107 15.1442 11.3767C15.386 11.4791 15.6465 11.6186 15.9256 11.814L19.014 14.0093C19.3581 14.2419 19.6093 14.5395 19.7581 14.893C19.8977 15.2465 19.9628 15.5721 19.9628 15.8977C19.9628 16.3442 19.8605 16.7907 19.6651 17.2093C19.4698 17.6279 19.2279 17.9907 18.9209 18.3256C18.3907 18.9116 17.814 19.3302 17.1442 19.6C16.5023 19.8605 15.8047 20 15.0698 20ZM4.03721 1.39535C3.52558 1.39535 3.05116 1.6186 2.59535 2.06512C2.16744 2.46512 1.86977 2.90233 1.68372 3.37674C1.48837 3.86047 1.39535 4.37209 1.39535 4.92093C1.39535 5.78605 1.6 6.72558 2.0093 7.69302C2.42791 8.67907 3.01395 9.70233 3.75814 10.7256C4.50233 11.7488 5.34884 12.7442 6.27907 13.6837C7.2093 14.6047 8.21395 15.4605 9.24651 16.214C10.2512 16.9488 11.2837 17.5442 12.307 17.9721C13.8977 18.6512 15.386 18.8093 16.614 18.2977C17.0884 18.1023 17.507 17.8047 17.8884 17.3767C18.1023 17.1442 18.2698 16.893 18.4093 16.5954C18.5209 16.3628 18.5767 16.1209 18.5767 15.8791C18.5767 15.7302 18.5488 15.5814 18.4744 15.414C18.4465 15.3581 18.3907 15.2558 18.214 15.1349L15.1256 12.9395C14.9395 12.8093 14.7721 12.7163 14.614 12.6512C14.4093 12.5674 14.3256 12.4837 14.0093 12.6791C13.8233 12.7721 13.6558 12.9116 13.4698 13.0977L12.7628 13.7953C12.4 14.1488 11.8419 14.2326 11.414 14.0744L11.1628 13.9628C10.7814 13.7581 10.3349 13.4419 9.84186 13.0233C9.39535 12.6419 8.91163 12.1953 8.32558 11.6186C7.86977 11.1535 7.41395 10.6605 6.93953 10.1116C6.50233 9.6 6.18605 9.16279 5.9907 8.8L5.87907 8.52093C5.82326 8.30698 5.80465 8.18605 5.80465 8.05581C5.80465 7.72093 5.92558 7.42326 6.15814 7.1907L6.85581 6.46512C7.04186 6.27907 7.18139 6.10233 7.27442 5.94419C7.34884 5.82326 7.37674 5.72093 7.37674 5.62791C7.37674 5.55349 7.34884 5.44186 7.30233 5.33023C7.23721 5.1814 7.13488 5.01395 7.00465 4.83721L4.84651 1.78605C4.75349 1.65581 4.64186 1.56279 4.50233 1.49767C4.35349 1.43256 4.19535 1.39535 4.03721 1.39535ZM11.814 12.8L11.6651 13.4326L11.9163 12.7814C11.8698 12.7721 11.8326 12.7814 11.814 12.8Z" fill="#1166EA"/>
<path d="M18.3723 6.7907H13.9072C13.5258 6.7907 13.2095 6.47442 13.2095 6.09303V1.62791C13.2095 1.24652 13.5258 0.930237 13.9072 0.930237C14.2886 0.930237 14.6049 1.24652 14.6049 1.62791V5.39535H18.3723C18.7537 5.39535 19.07 5.71163 19.07 6.09303C19.07 6.47442 18.7537 6.7907 18.3723 6.7907Z" fill="#1166EA"/>
</svg>
