<svg width="18" height="18" viewBox="0 0 18 18" fill="none" xmlns="http://www.w3.org/2000/svg">
<path d="M17.4867 12.7194L13.5491 11.0319C13.3809 10.9602 13.1939 10.9451 13.0164 10.9889C12.8389 11.0326 12.6804 11.1329 12.5647 11.2745L10.8209 13.405C8.08423 12.1147 5.88181 9.91225 4.59149 7.17555L6.72199 5.43177C6.86391 5.31634 6.96436 5.15782 7.00813 4.9802C7.0519 4.80258 7.03661 4.61553 6.96457 4.44738L5.27705 0.509807C5.19798 0.328542 5.05815 0.180544 4.88165 0.0913347C4.70516 0.00212529 4.50307 -0.0227045 4.31023 0.0211269L0.653918 0.864892C0.467997 0.907825 0.302119 1.01251 0.183355 1.16186C0.064592 1.3112 -4.28284e-05 1.4964 2.12917e-08 1.68721C2.12917e-08 10.7049 7.30911 18 16.3128 18C16.5037 18.0001 16.6889 17.9355 16.8384 17.8168C16.9878 17.698 17.0925 17.5321 17.1355 17.3461L17.9792 13.6898C18.0228 13.496 17.9974 13.2931 17.9075 13.116C17.8176 12.9389 17.6688 12.7987 17.4867 12.7194Z" fill="white"/>
</svg>
