<svg width="22" height="17" viewBox="0 0 22 17" fill="none" xmlns="http://www.w3.org/2000/svg">
<path d="M19.9375 0H2.0625C0.923398 0 0 0.95138 0 2.125V14.875C0 16.0486 0.923398 17 2.0625 17H19.9375C21.0766 17 22 16.0486 22 14.875V2.125C22 0.95138 21.0766 0 19.9375 0ZM19.9375 2.125V3.93147C18.9741 4.73981 17.4381 5.99675 14.1545 8.64587C13.4308 9.23233 11.9974 10.6412 11 10.6248C10.0028 10.6414 8.56887 9.23211 7.84554 8.64587C4.56242 5.99715 3.02607 4.73994 2.0625 3.93147V2.125H19.9375ZM2.0625 14.875V6.65824C3.04709 7.46623 4.44336 8.60005 6.57155 10.3171C7.51072 11.0787 9.15544 12.7602 11 12.75C12.8355 12.7602 14.4594 11.1031 15.4281 10.3174C17.5562 8.60045 18.9529 7.46632 19.9375 6.65829V14.875H2.0625Z" fill="#1166EA"/>
</svg>
