<svg width="41" height="55" viewBox="0 0 41 55" fill="none" xmlns="http://www.w3.org/2000/svg">
<path id="Vector" d="M35.875 6.875H27.3333C27.3333 3.08301 24.269 0 20.5 0C16.731 0 13.6667 3.08301 13.6667 6.875H5.125C2.29557 6.875 0 9.18457 0 12.0312V49.8438C0 52.6904 2.29557 55 5.125 55H35.875C38.7044 55 41 52.6904 41 49.8438V12.0312C41 9.18457 38.7044 6.875 35.875 6.875ZM20.5 4.29688C21.9201 4.29688 23.0625 5.44629 23.0625 6.875C23.0625 8.30371 21.9201 9.45312 20.5 9.45312C19.0799 9.45312 17.9375 8.30371 17.9375 6.875C17.9375 5.44629 19.0799 4.29688 20.5 4.29688ZM33.4406 29.1973L18.1724 44.4297C17.6706 44.9346 16.8591 44.9238 16.3573 44.4189L7.53802 35.4707C7.0362 34.9658 7.04688 34.1494 7.5487 33.6445L10.581 30.6152C11.0828 30.1104 11.8943 30.1211 12.3961 30.626L17.3076 35.6104L28.6253 24.3096C29.1271 23.8047 29.9385 23.8154 30.4404 24.3203L33.4513 27.3711C33.9531 27.8867 33.9425 28.6924 33.4406 29.1973Z" fill="#1166EA"/>
</svg>
