<svg width="39" height="39" viewBox="0 0 39 39" fill="none" xmlns="http://www.w3.org/2000/svg">
<path d="M19.5 3.65625C10.7479 3.65625 3.65625 10.7479 3.65625 19.5C3.65625 28.2521 10.7479 35.3438 19.5 35.3438C28.2521 35.3438 35.3438 28.2521 35.3438 19.5C35.3438 10.7479 28.2521 3.65625 19.5 3.65625ZM19.5 34.026C15.0363 34.026 11.0373 31.9998 8.37129 28.8234C9.72715 28.2369 13.1092 27.0182 15.2496 26.3936C15.4172 26.3402 15.4477 26.3326 15.4477 25.5785C15.4477 24.7711 15.3562 24.1998 15.1582 23.7809C14.8916 23.2096 14.5717 22.2422 14.4574 21.3738C14.1375 21.0006 13.7033 20.2693 13.4215 18.8678C13.1777 17.6338 13.292 17.1844 13.452 16.7654C13.4672 16.7197 13.49 16.674 13.4977 16.6283C13.5586 16.3465 13.4748 14.8383 13.2615 13.6729C13.1168 12.873 13.2996 11.1744 14.4041 9.76523C15.0973 8.87402 16.4303 7.78477 18.8221 7.63242H20.1551C22.585 7.78477 23.918 8.87402 24.6111 9.76523C25.7156 11.1744 25.8984 12.873 25.7461 13.6729C25.5328 14.8383 25.449 16.3389 25.51 16.6283C25.5176 16.674 25.5404 16.7197 25.5557 16.7578C25.7156 17.1768 25.8375 17.6262 25.5861 18.8602C25.3043 20.2617 24.8701 20.993 24.5502 21.3662C24.4359 22.2346 24.116 23.1943 23.8494 23.7732C23.598 24.2988 23.3467 24.9234 23.3467 25.548C23.3467 26.3021 23.3771 26.3098 23.5523 26.3631C25.5861 26.9648 29.09 28.176 30.6363 28.8082C27.9703 31.9922 23.9713 34.026 19.5 34.026Z" fill="#1166EA"/>
</svg>
